# xmcd
#
# Track frame offsets:
# 150
# 21857
# 47114
# 71507
# 87921
# 108606
# 135525
# 155282
# 164138
# 187272
# 211204
#
# Disc length: 3097 seconds
#
# Revision: 0
# Processed by: cddbd v1.4PL0 Copyright (c) Steve Scherf et al.
# Submitted via: Audion 2.5.0 (http://www.panic.com/audion/)
#
DISCID=9d0c170b
DTITLE=various artist - blossom . happiness compilation album vol. 3
DYEAR=1900
DGENRE=
TTITLE0=hi-tech mates . popoupstart!
TTITLE1=phase6 . cliped clapper song
TTITLE2=stoned soul picnic . ...
TTITLE3=qypthone . take the money and run
TTITLE4=pandart sasanoooha . q&a
TTITLE5=chelucy . hey you chel?
TTITLE6=jet lopez . bossa with madam rosa
TTITLE7=Eel . il pleut
TTITLE8=gorilla addict . gee!
TTITLE9=idol taxi . crazy monday night show
TTITLE10=airbus . have a good night
EXTD=
EXTT0=
EXTT1=
EXTT2=
EXTT3=
EXTT4=
EXTT5=
EXTT6=
EXTT7=
EXTT8=
EXTT9=
EXTT10=
PLAYORDER=
